<svg width="112" height="20" viewBox="0 0 140 25" fill="none" xmlns="http://www.w3.org/2000/svg">
    <g opacity="0.6">
        <path
            d="M104 23.7647V10.64H108.589C109.503 10.64 110.257 10.7981 110.851 11.1142C111.445 11.4261 111.887 11.847 112.177 12.3767C112.468 12.9022 112.613 13.4854 112.613 14.1263C112.613 14.6902 112.513 15.1559 112.312 15.5233C112.115 15.8907 111.855 16.1813 111.53 16.3949C111.21 16.6085 110.861 16.7666 110.485 16.8691V16.9973C110.887 17.0229 111.291 17.1639 111.697 17.4203C112.103 17.6766 112.442 18.044 112.716 18.5225C112.989 19.001 113.126 19.5863 113.126 20.2785C113.126 20.9364 112.976 21.5281 112.677 22.0536C112.378 22.5791 111.906 22.9957 111.261 23.3033C110.616 23.6109 109.776 23.7647 108.742 23.7647H104ZM105.589 22.3548H108.742C109.781 22.3548 110.517 22.154 110.953 21.7524C111.393 21.3466 111.613 20.8552 111.613 20.2785C111.613 19.8341 111.5 19.424 111.274 19.048C111.047 18.6678 110.725 18.3644 110.306 18.138C109.887 17.9073 109.392 17.792 108.819 17.792H105.589V22.3548ZM105.589 16.4077H108.537C109.016 16.4077 109.447 16.3137 109.832 16.1257C110.221 15.9377 110.528 15.6729 110.755 15.3311C110.985 14.9893 111.101 14.5877 111.101 14.1263C111.101 13.5495 110.9 13.0603 110.498 12.6587C110.097 12.2528 109.46 12.0499 108.589 12.0499H105.589V16.4077Z"
            fill="none"></path>
        <path
            d="M119.659 23.9698C118.711 23.9698 117.893 23.7604 117.205 23.3418C116.521 22.9188 115.994 22.3292 115.622 21.573C115.254 20.8125 115.071 19.9281 115.071 18.9199C115.071 17.9116 115.254 17.0229 115.622 16.2539C115.994 15.4806 116.511 14.8782 117.173 14.4467C117.839 14.0109 118.617 13.793 119.505 13.793C120.018 13.793 120.524 13.8785 121.024 14.0494C121.524 14.2203 121.979 14.498 122.389 14.8825C122.799 15.2627 123.126 15.7669 123.37 16.3949C123.613 17.0229 123.735 17.7962 123.735 18.7148V19.3556H116.147V18.0483H122.197C122.197 17.4929 122.086 16.9973 121.864 16.5615C121.646 16.1257 121.334 15.7818 120.928 15.5297C120.527 15.2777 120.052 15.1516 119.505 15.1516C118.903 15.1516 118.382 15.3012 117.942 15.6002C117.506 15.895 117.171 16.2795 116.936 16.7538C116.701 17.228 116.583 17.7364 116.583 18.279V19.1506C116.583 19.894 116.711 20.5241 116.968 21.0411C117.228 21.5538 117.589 21.9447 118.051 22.2138C118.512 22.4787 119.048 22.6112 119.659 22.6112C120.057 22.6112 120.415 22.5556 120.736 22.4446C121.061 22.3292 121.34 22.1583 121.575 21.9319C121.81 21.7012 121.992 21.4149 122.12 21.0731L123.581 21.4833C123.428 21.9789 123.169 22.4146 122.806 22.7906C122.443 23.1623 121.994 23.4528 121.46 23.6622C120.926 23.8673 120.326 23.9698 119.659 23.9698Z"
            fill="none"></path>
        <path
            d="M130.317 13.9212V15.2029H125.215V13.9212H130.317ZM126.702 11.5628H128.215V20.945C128.215 21.3722 128.277 21.6926 128.401 21.9062C128.529 22.1156 128.691 22.2566 128.888 22.3292C129.088 22.3976 129.3 22.4317 129.522 22.4317C129.689 22.4317 129.825 22.4232 129.932 22.4061C130.039 22.3847 130.124 22.3677 130.189 22.3548L130.496 23.7134C130.394 23.7519 130.25 23.7903 130.067 23.8288C129.883 23.8715 129.65 23.8929 129.368 23.8929C128.941 23.8929 128.522 23.801 128.112 23.6173C127.706 23.4336 127.369 23.1538 127.1 22.7778C126.835 22.4018 126.702 21.9276 126.702 21.3551V11.5628Z"
            fill="none"></path>
        <path
            d="M135.488 23.9954C134.865 23.9954 134.299 23.8779 133.79 23.643C133.282 23.4037 132.878 23.0598 132.579 22.6112C132.28 22.1583 132.13 21.6114 132.13 20.9706C132.13 20.4066 132.241 19.9495 132.464 19.5992C132.686 19.2446 132.983 18.9669 133.354 18.766C133.726 18.5652 134.136 18.4157 134.585 18.3175C135.038 18.2149 135.493 18.1337 135.95 18.0739C136.548 17.997 137.033 17.9393 137.405 17.9009C137.781 17.8582 138.054 17.7877 138.225 17.6894C138.4 17.5911 138.488 17.4203 138.488 17.1767V17.1255C138.488 16.4932 138.315 16.0018 137.968 15.6515C137.627 15.3012 137.108 15.126 136.411 15.126C135.689 15.126 135.123 15.2841 134.713 15.6002C134.303 15.9164 134.014 16.2539 133.848 16.6128L132.412 16.1001C132.669 15.502 133.01 15.0363 133.438 14.703C133.869 14.3655 134.339 14.1305 134.848 13.9981C135.36 13.8614 135.864 13.793 136.36 13.793C136.676 13.793 137.039 13.8315 137.449 13.9084C137.864 13.981 138.263 14.1327 138.648 14.3634C139.037 14.5941 139.359 14.9423 139.615 15.408C139.872 15.8737 140 16.4974 140 17.2793V23.7647H138.488V22.4317H138.411C138.308 22.6454 138.137 22.8739 137.898 23.1175C137.659 23.361 137.34 23.5682 136.943 23.7391C136.546 23.91 136.061 23.9954 135.488 23.9954ZM135.719 22.6368C136.317 22.6368 136.821 22.5193 137.232 22.2843C137.646 22.0494 137.958 21.746 138.167 21.3743C138.381 21.0026 138.488 20.6117 138.488 20.2016V18.8173C138.423 18.8942 138.283 18.9647 138.065 19.0288C137.851 19.0886 137.603 19.142 137.321 19.189C137.044 19.2317 136.772 19.2702 136.507 19.3044C136.247 19.3343 136.035 19.3599 135.873 19.3813C135.48 19.4325 135.112 19.5158 134.771 19.6312C134.433 19.7423 134.16 19.911 133.95 20.1375C133.745 20.3596 133.643 20.663 133.643 21.0475C133.643 21.573 133.837 21.9703 134.226 22.2395C134.619 22.5044 135.117 22.6368 135.719 22.6368Z"
            fill="none"></path>
    </g>
    <path d="M47.6282 0.000488281H42.7425V24.0005H47.6282V0.000488281Z"
        fill="none"></path>
    <path
        d="M0 0.0270386H5.18627V10.7934L14.8824 0.0270386H21.171L12.2767 9.8962L21.7473 24.0021H15.5338L8.61874 13.8837L5.18627 17.6968V24.0021H0V0.0270386Z"
        fill="none"></path>
    <path fill-rule="evenodd" clip-rule="evenodd"
        d="M40.8635 23.7761H38.3831C36.1533 23.7761 35.0509 22.8041 35.101 20.8851C34.4496 21.882 33.6479 22.6546 32.7208 23.1779C31.7688 23.7013 30.6413 23.9755 29.2884 23.9755C27.3091 23.9755 25.7056 23.5269 24.4779 22.6297C23.2753 21.7075 22.674 20.4365 22.674 18.7917C22.674 16.9225 23.3755 15.477 24.7535 14.4801C26.1566 13.4583 28.186 12.935 30.8418 12.935H34.3744V12.0876C34.3744 11.2901 34.0738 10.667 33.4725 10.1935C32.8712 9.72001 32.0694 9.47078 31.0422 9.47078C30.1402 9.47078 29.4136 9.67016 28.8374 10.044C28.2611 10.4427 27.9104 10.9661 27.8102 11.6141H23.0749C23.2252 9.81969 24.052 8.42406 25.5052 7.42717C26.9583 6.43029 28.8875 5.90692 31.2927 5.90692C33.7982 5.90692 35.7524 6.45521 37.1054 7.55178C38.4834 8.64835 39.1849 10.2434 39.1849 12.3119V18.5175C39.1849 18.9412 39.2851 19.2403 39.4605 19.4147C39.6359 19.5642 39.9365 19.6639 40.3374 19.6639H40.8635V23.7761ZM30.7916 16.1499C29.7895 16.1499 28.9877 16.3493 28.4115 16.773C27.8603 17.1717 27.5847 17.72 27.5847 18.4427C27.5847 19.0658 27.8102 19.5393 28.2862 19.9132C28.7622 20.287 29.4136 20.4614 30.2154 20.4614C31.4932 20.4614 32.4953 20.1125 33.2219 19.3898C33.9485 18.667 34.3494 17.6951 34.3744 16.4739V16.1499H30.7916Z"
        fill="none"></path>
    <path
        d="M54.1172 17.9194C54.1923 18.692 54.5681 19.315 55.2697 19.8135C55.9712 20.287 56.8481 20.5362 57.9254 20.5362C58.9527 20.5362 59.7795 20.3867 60.3808 20.0627C60.9821 19.7138 61.2827 19.2403 61.2827 18.6172C61.2827 18.1686 61.1324 17.8197 60.8568 17.5954C60.5812 17.3711 60.1803 17.1967 59.6792 17.1219C59.1782 16.9973 58.3514 16.8727 57.1989 16.7481C55.6204 16.5487 54.3176 16.2745 53.2904 15.9506C52.2631 15.6266 51.4113 15.1281 50.81 14.4303C50.1836 13.7325 49.8829 12.8353 49.8829 11.6889C49.8829 10.5425 50.1836 9.54557 50.81 8.6733C51.4614 7.7761 52.3633 7.1032 53.5158 6.60476C54.6683 6.13124 55.9962 5.88202 57.4995 5.88202C59.9298 5.90694 61.859 6.43031 63.3372 7.42719C64.8405 8.42407 65.6422 9.81971 65.7675 11.6141H61.1324C61.0572 10.9412 60.7065 10.4178 60.0551 9.99417C59.4287 9.57049 58.627 9.34619 57.6248 9.34619C56.6978 9.34619 55.9461 9.52065 55.3699 9.86956C54.8187 10.2185 54.5431 10.6671 54.5431 11.2403C54.5431 11.6639 54.6934 11.963 54.9941 12.1624C55.2947 12.3618 55.6956 12.5113 56.1716 12.611C56.6477 12.7107 57.4744 12.8104 58.6019 12.9101C61.0071 13.1842 62.8361 13.7076 64.0888 14.4552C65.3917 15.178 66.018 16.449 66.018 18.2683C66.018 19.4147 65.6673 20.4116 64.9908 21.2839C64.3143 22.1562 63.3873 22.8291 62.1596 23.3026C60.957 23.7512 59.554 24.0004 57.9755 24.0004C55.5202 24.0004 53.4908 23.4521 51.9625 22.3805C50.4091 21.2839 49.6073 19.7886 49.5071 17.9194H54.1172Z"
        fill="none"></path>
    <path
        d="M83.2058 8.07525C81.8528 6.80423 80.1491 6.15625 78.0445 6.15625C75.8648 6.15625 74.111 6.95376 72.7831 8.54877V0.000488281H67.8975V24.0005H72.7831V14.9538C72.7831 13.4335 73.1088 12.2622 73.8103 11.4148C74.5119 10.5675 75.489 10.1438 76.7417 10.1438C77.9443 10.1438 78.8463 10.5425 79.4476 11.3151C80.0489 12.0628 80.3496 13.1594 80.3496 14.6298V24.0005H85.2352V14.4304C85.2352 11.4647 84.5587 9.34628 83.2058 8.07525Z"
        fill="none"></path>
    <path d="M87.1138 6.35553H91.9994V23.9755H87.1138V6.35553Z"
        fill="none"></path>
    <path
        d="M91.2735 0.698308C90.8225 0.249709 90.2463 0.000488281 89.5447 0.000488281C88.8683 0.000488281 88.267 0.249709 87.7909 0.698308C87.3399 1.14691 87.0894 1.69519 87.0894 2.36809C87.0894 3.04099 87.3399 3.6142 87.7909 4.06279C88.267 4.51139 88.8683 4.76061 89.5447 4.76061C90.2212 4.76061 90.8225 4.53631 91.2735 4.06279C91.7245 3.58927 91.975 3.04099 91.975 2.36809C91.975 1.69519 91.7245 1.12198 91.2735 0.698308Z"
        fill="none"></path>
</svg>